<svg xmlns="http://www.w3.org/2000/svg" xmlns:xlink="http://www.w3.org/1999/xlink" width="500" zoomAndPan="magnify" viewBox="0 0 375 374.999991" height="500" preserveAspectRatio="xMidYMid meet" version="1.0"><defs><clipPath id="c253b5f42a"><path d="M 98 174 L 297 174 L 297 244 L 98 244 Z M 98 174 " clip-rule="nonzero"/></clipPath><clipPath id="8af3485e24"><path d="M 90.703125 174.621094 L 164.421875 100.90625 L 301.246094 237.730469 L 227.53125 311.445312 Z M 90.703125 174.621094 " clip-rule="nonzero"/></clipPath><clipPath id="74ffded95d"><path d="M 90.703125 174.621094 L 164.421875 100.90625 L 301.246094 237.730469 L 227.53125 311.445312 Z M 90.703125 174.621094 " clip-rule="nonzero"/></clipPath><clipPath id="652cceea72"><path d="M 99 175 L 298 175 L 298 245 L 99 245 Z M 99 175 " clip-rule="nonzero"/></clipPath><clipPath id="4c090050f3"><path d="M 92.261719 176.175781 L 165.976562 102.460938 L 302.800781 239.285156 L 229.085938 313.003906 Z M 92.261719 176.175781 " clip-rule="nonzero"/></clipPath><clipPath id="bd97393611"><path d="M 92.261719 176.175781 L 165.976562 102.460938 L 302.800781 239.285156 L 229.085938 313.003906 Z M 92.261719 176.175781 " clip-rule="nonzero"/></clipPath><clipPath id="7c1a7cec7a"><path d="M 4 61 L 370.699219 61 L 370.699219 244.523438 L 4 244.523438 Z M 4 61 " clip-rule="nonzero"/></clipPath><clipPath id="7039240f32"><path d="M 101 177 L 299 177 L 299 247 L 101 247 Z M 101 177 " clip-rule="nonzero"/></clipPath><clipPath id="7b92147dc9"><path d="M 93.628906 177.542969 L 167.34375 103.828125 L 304.167969 240.652344 L 230.453125 314.371094 Z M 93.628906 177.542969 " clip-rule="nonzero"/></clipPath><clipPath id="a9b59e3748"><path d="M 93.628906 177.542969 L 167.34375 103.828125 L 304.167969 240.652344 L 230.453125 314.371094 Z M 93.628906 177.542969 " clip-rule="nonzero"/></clipPath><clipPath id="941b4508f9"><path d="M 8 61 L 374.652344 61 L 374.652344 244.523438 L 8 244.523438 Z M 8 61 " clip-rule="nonzero"/></clipPath><clipPath id="afd9089a78"><path d="M 6 63 L 372 63 L 372 246.453125 L 6 246.453125 Z M 6 63 " clip-rule="nonzero"/></clipPath><clipPath id="bdf79a7c79"><path d="M 101 175 L 299 175 L 299 245 L 101 245 Z M 101 175 " clip-rule="nonzero"/></clipPath><clipPath id="8a4e38ad44"><path d="M 93.628906 176.082031 L 167.34375 102.367188 L 304.167969 239.191406 L 230.453125 312.90625 Z M 93.628906 176.082031 " clip-rule="nonzero"/></clipPath><clipPath id="51db943cff"><path d="M 93.628906 176.082031 L 167.34375 102.367188 L 304.167969 239.191406 L 230.453125 312.90625 Z M 93.628906 176.082031 " clip-rule="nonzero"/></clipPath><clipPath id="d490d60e48"><path d="M 102 177 L 301 177 L 301 247 L 102 247 Z M 102 177 " clip-rule="nonzero"/></clipPath><clipPath id="a3746ac947"><path d="M 95.183594 177.640625 L 168.902344 103.921875 L 305.726562 240.75 L 232.011719 314.464844 Z M 95.183594 177.640625 " clip-rule="nonzero"/></clipPath><clipPath id="6ba10e5a74"><path d="M 95.183594 177.640625 L 168.902344 103.921875 L 305.726562 240.75 L 232.011719 314.464844 Z M 95.183594 177.640625 " clip-rule="nonzero"/></clipPath><clipPath id="0ddf30aa69"><path d="M 104 178 L 302 178 L 302 248 L 104 248 Z M 104 178 " clip-rule="nonzero"/></clipPath><clipPath id="9d0f85a3eb"><path d="M 96.550781 179.003906 L 170.269531 105.289062 L 307.09375 242.113281 L 233.378906 315.832031 Z M 96.550781 179.003906 " clip-rule="nonzero"/></clipPath><clipPath id="9dea4abff7"><path d="M 96.550781 179.003906 L 170.269531 105.289062 L 307.09375 242.113281 L 233.378906 315.832031 Z M 96.550781 179.003906 " clip-rule="nonzero"/></clipPath><clipPath id="c29751abc1"><path d="M 101 177 L 300 177 L 300 247 L 101 247 Z M 101 177 " clip-rule="nonzero"/></clipPath><clipPath id="5af2f7391f"><path d="M 94.378906 177.542969 L 168.09375 103.828125 L 304.917969 240.652344 L 231.203125 314.371094 Z M 94.378906 177.542969 " clip-rule="nonzero"/></clipPath><clipPath id="045b500ed0"><path d="M 94.378906 177.542969 L 168.09375 103.828125 L 304.917969 240.652344 L 231.203125 314.371094 Z M 94.378906 177.542969 " clip-rule="nonzero"/></clipPath><clipPath id="7b7953866b"><path d="M 103 178 L 302 178 L 302 248 L 103 248 Z M 103 178 " clip-rule="nonzero"/></clipPath><clipPath id="288937cbd3"><path d="M 95.933594 179.101562 L 169.652344 105.386719 L 306.476562 242.210938 L 232.761719 315.925781 Z M 95.933594 179.101562 " clip-rule="nonzero"/></clipPath><clipPath id="e70948c291"><path d="M 95.933594 179.101562 L 169.652344 105.386719 L 306.476562 242.210938 L 232.761719 315.925781 Z M 95.933594 179.101562 " clip-rule="nonzero"/></clipPath><clipPath id="23fd803b0a"><path d="M 104 180 L 303 180 L 303 250 L 104 250 Z M 104 180 " clip-rule="nonzero"/></clipPath><clipPath id="76ccc4e4f3"><path d="M 97.300781 180.46875 L 171.019531 106.75 L 307.84375 243.578125 L 234.128906 317.292969 Z M 97.300781 180.46875 " clip-rule="nonzero"/></clipPath><clipPath id="df771f1db6"><path d="M 97.300781 180.46875 L 171.019531 106.75 L 307.84375 243.578125 L 234.128906 317.292969 Z M 97.300781 180.46875 " clip-rule="nonzero"/></clipPath></defs><g clip-path="url(#c253b5f42a)"><g clip-path="url(#8af3485e24)"><g clip-path="url(#74ffded95d)"><path fill="#006837" d="M 279.273438 230.671875 C 276.507812 227.421875 275.046875 223.816406 274.035156 219.761719 C 273.042969 216.0625 271.371094 212.691406 269.15625 209.578125 C 268.621094 208.628906 266.976562 207.15625 268.257812 206.171875 C 268.765625 205.800781 269.5625 206.316406 269.914062 206.855469 C 271.589844 208.902344 273.304688 210.914062 274.929688 213 C 278.738281 217.605469 279.617188 223.800781 283.261719 228.507812 C 286.511719 232.832031 290.175781 236.875 294.601562 240.015625 C 295.441406 240.722656 296.65625 241.984375 295.585938 242.988281 C 295.164062 243.398438 294.578125 243.472656 294.117188 243.128906 C 287.988281 238.535156 281.238281 234.96875 274.574219 231.273438 C 268.746094 228.039062 262.441406 226.074219 255.925781 224.757812 C 252.183594 224.003906 248.40625 223.851562 244.617188 224.199219 C 233.46875 225.226562 222.417969 226.828125 211.648438 229.996094 C 198.734375 233.722656 185.4375 239.410156 171.9375 235.109375 C 165.703125 233.445312 160.019531 230.664062 154.863281 226.800781 C 144.792969 219.398438 135.050781 211.550781 124.792969 204.410156 C 122.691406 203.015625 120.59375 201.617188 118.496094 200.214844 C 111.523438 195.433594 106.246094 188.640625 101.570312 181.691406 C 94.503906 170.851562 99.632812 174.296875 107.730469 177.148438 C 137.390625 187.171875 168.902344 180.054688 199.449219 181.382812 C 225.035156 182.136719 246.441406 199 262.128906 217.9375 C 267.066406 223.0625 272.28125 228.601562 279.273438 230.671875 Z M 276.144531 219.859375 C 277.222656 223.8125 278.660156 227.851562 282.105469 230.390625 C 279.480469 226.757812 277.789062 223.03125 276.453125 219.121094 C 276.335938 219.035156 276.222656 218.953125 276.105469 218.871094 C 276.097656 218.882812 276.089844 218.894531 276.085938 218.902344 C 276.210938 218.980469 276.070312 219.535156 276.144531 219.859375 Z M 101.605469 177.933594 C 106.140625 185.273438 111.371094 192.339844 118.28125 197.566406 C 125.75 202.613281 133.144531 207.753906 140.234375 213.320312 C 156.210938 225.433594 171.101562 239.082031 192.820312 233.421875 C 209.691406 228.359375 226.609375 223.34375 244.285156 222.226562 C 249.359375 221.753906 254.371094 222.171875 259.300781 223.464844 C 261.445312 223.859375 263.46875 224.972656 265.636719 224.996094 C 238.992188 204.964844 210.839844 205.234375 179.238281 203.894531 C 166.484375 203.054688 153.316406 203.222656 141.136719 198.878906 C 137.195312 197.425781 133.277344 195.894531 129.410156 194.242188 C 119.480469 189.988281 110.785156 183.488281 101.605469 177.933594 Z M 261.652344 220.847656 C 261.707031 220.777344 261.757812 220.707031 261.8125 220.640625 C 246.269531 201.648438 225.203125 184.21875 199.582031 183.386719 C 167.910156 182.246094 135.316406 189.230469 104.65625 178.378906 C 119.734375 188.960938 136.722656 198.617188 155.316406 201.085938 C 177.300781 203.578125 199.542969 202.84375 221.488281 205.710938 C 235.816406 207.667969 249.339844 213.40625 261.652344 220.847656 Z M 261.652344 220.847656 " fill-opacity="1" fill-rule="nonzero"/></g></g></g><g clip-path="url(#652cceea72)"><g clip-path="url(#4c090050f3)"><g clip-path="url(#bd97393611)"><path fill="#006837" d="M 280.832031 232.226562 C 278.066406 228.980469 276.605469 225.375 275.59375 221.320312 C 274.601562 217.621094 272.929688 214.25 270.714844 211.132812 C 270.175781 210.183594 268.53125 208.714844 269.816406 207.730469 C 270.324219 207.359375 271.121094 207.875 271.46875 208.414062 C 273.144531 210.457031 274.863281 212.472656 276.484375 214.558594 C 280.292969 219.164062 281.175781 225.359375 284.820312 230.0625 C 288.070312 234.390625 291.734375 238.433594 296.160156 241.574219 C 297 242.28125 298.214844 243.539062 297.144531 244.542969 C 296.722656 244.953125 296.132812 245.03125 295.671875 244.683594 C 289.546875 240.09375 282.792969 236.527344 276.128906 232.828125 C 270.300781 229.59375 263.996094 227.628906 257.480469 226.316406 C 253.742188 225.5625 249.960938 225.410156 246.175781 225.757812 C 235.027344 226.785156 223.976562 228.382812 213.207031 231.550781 C 200.292969 235.28125 186.996094 240.96875 173.492188 236.664062 C 167.257812 235 161.578125 232.222656 156.421875 228.359375 C 146.351562 220.953125 136.605469 213.105469 126.351562 205.96875 C 124.25 204.574219 122.148438 203.175781 120.054688 201.769531 C 113.082031 196.988281 107.804688 190.199219 103.125 183.25 C 96.0625 172.410156 101.1875 175.851562 109.289062 178.707031 C 138.945312 188.726562 170.457031 181.609375 201.003906 182.941406 C 226.59375 183.691406 247.996094 200.554688 263.6875 219.496094 C 268.625 224.617188 273.835938 230.15625 280.832031 232.226562 Z M 277.703125 221.414062 C 278.78125 225.367188 280.214844 229.410156 283.664062 231.945312 C 281.035156 228.316406 279.34375 224.585938 278.011719 220.675781 C 277.894531 220.59375 277.777344 220.511719 277.660156 220.429688 C 277.65625 220.4375 277.648438 220.449219 277.640625 220.460938 C 277.765625 220.539062 277.625 221.09375 277.703125 221.414062 Z M 103.160156 179.492188 C 107.699219 186.832031 112.929688 193.898438 119.835938 199.125 C 127.304688 204.171875 134.699219 209.308594 141.789062 214.878906 C 157.769531 226.992188 172.65625 240.636719 194.378906 234.976562 C 211.25 229.917969 228.164062 224.902344 245.84375 223.785156 C 250.914062 223.308594 255.925781 223.726562 260.859375 225.023438 C 263 225.417969 265.027344 226.53125 267.195312 226.554688 C 240.546875 206.523438 212.394531 206.792969 180.796875 205.453125 C 168.042969 204.609375 154.875 204.78125 142.691406 200.4375 C 138.75 198.984375 134.832031 197.449219 130.96875 195.800781 C 121.039062 191.546875 112.339844 185.046875 103.160156 179.492188 Z M 263.210938 222.402344 C 263.261719 222.335938 263.316406 222.265625 263.371094 222.195312 C 247.828125 203.207031 226.761719 185.777344 201.136719 184.941406 C 169.46875 183.800781 136.875 190.785156 106.214844 179.933594 C 121.289062 190.519531 138.277344 200.175781 156.875 202.644531 C 178.855469 205.136719 201.097656 204.402344 223.042969 207.265625 C 237.371094 209.222656 250.898438 214.964844 263.210938 222.402344 Z M 263.210938 222.402344 " fill-opacity="1" fill-rule="nonzero"/></g></g></g><g clip-path="url(#7c1a7cec7a)"><path fill="#006837" d="M 370.027344 241.78125 C 369.308594 243.554688 367.582031 244.71875 365.664062 244.71875 C 365.664062 244.71875 334.308594 244.597656 323.378906 244.554688 C 321.324219 244.546875 319.675781 242.878906 319.675781 240.828125 L 319.675781 238.921875 C 319.675781 236.914062 321.300781 235.289062 323.304688 235.289062 L 353.886719 235.289062 C 353.964844 235.289062 354.003906 235.195312 353.949219 235.144531 L 301.1875 183.578125 C 300.261719 182.675781 299.742188 181.4375 299.742188 180.148438 L 299.742188 89.007812 C 299.742188 88.960938 299.703125 88.921875 299.65625 88.921875 L 260.597656 88.921875 C 260.550781 88.921875 260.511719 88.960938 260.511719 89.007812 L 260.511719 132.402344 C 260.511719 134.003906 259.824219 135.578125 258.507812 136.488281 C 256.601562 137.8125 254.097656 137.554688 252.503906 136 L 187.585938 72.550781 C 187.550781 72.515625 187.5 72.515625 187.464844 72.550781 L 21.105469 235.144531 C 21.050781 235.195312 21.089844 235.289062 21.164062 235.289062 L 51.726562 235.289062 C 53.738281 235.289062 55.375 236.925781 55.375 238.941406 L 55.375 241.371094 C 55.375 243.082031 53.996094 244.46875 52.289062 244.476562 C 41.980469 244.535156 9.386719 244.71875 9.386719 244.71875 C 7.472656 244.71875 5.746094 243.554688 5.019531 241.78125 C 4.300781 240.007812 4.722656 237.96875 6.09375 236.632812 L 184.230469 62.53125 C 186.0625 60.738281 188.988281 60.738281 190.820312 62.53125 L 250.941406 121.289062 C 250.996094 121.34375 251.089844 121.300781 251.089844 121.230469 L 251.089844 84.292969 C 251.089844 81.644531 253.234375 79.496094 255.886719 79.496094 L 304.371094 79.496094 C 307.019531 79.496094 309.171875 81.644531 309.171875 84.292969 L 309.171875 178.164062 C 309.171875 178.1875 309.179688 178.207031 309.195312 178.222656 L 368.960938 236.632812 C 370.328125 237.96875 370.753906 240.007812 370.027344 241.78125 " fill-opacity="1" fill-rule="nonzero"/></g><g clip-path="url(#7039240f32)"><g clip-path="url(#7b92147dc9)"><g clip-path="url(#a9b59e3748)"><path fill="#006837" d="M 282.199219 233.59375 C 279.433594 230.34375 277.972656 226.742188 276.960938 222.6875 C 275.96875 218.984375 274.296875 215.617188 272.082031 212.5 C 271.542969 211.550781 269.898438 210.082031 271.179688 209.097656 C 271.691406 208.722656 272.488281 209.238281 272.835938 209.78125 C 274.511719 211.824219 276.230469 213.839844 277.851562 215.925781 C 281.660156 220.527344 282.542969 226.726562 286.1875 231.429688 C 289.4375 235.757812 293.101562 239.796875 297.527344 242.941406 C 298.367188 243.644531 299.582031 244.90625 298.511719 245.910156 C 298.085938 246.320312 297.5 246.398438 297.039062 246.050781 C 290.914062 241.460938 284.160156 237.894531 277.496094 234.195312 C 271.667969 230.960938 265.363281 228.996094 258.847656 227.683594 C 255.109375 226.929688 251.328125 226.773438 247.539062 227.125 C 236.394531 228.152344 225.34375 229.75 214.570312 232.917969 C 201.660156 236.648438 188.363281 242.335938 174.859375 238.03125 C 168.625 236.367188 162.945312 233.585938 157.789062 229.722656 C 147.71875 222.320312 137.972656 214.472656 127.71875 207.335938 C 125.617188 205.941406 123.515625 204.539062 121.421875 203.136719 C 114.449219 198.355469 109.167969 191.5625 104.492188 184.617188 C 97.429688 173.773438 102.554688 177.21875 110.65625 180.070312 C 140.3125 190.09375 171.824219 182.976562 202.371094 184.308594 C 227.960938 185.058594 249.363281 201.921875 265.054688 220.863281 C 269.992188 225.984375 275.203125 231.523438 282.199219 233.59375 Z M 279.070312 222.78125 C 280.148438 226.734375 281.582031 230.773438 285.027344 233.3125 C 282.402344 229.683594 280.710938 225.953125 279.378906 222.042969 C 279.261719 221.960938 279.144531 221.878906 279.027344 221.796875 C 279.023438 221.804688 279.015625 221.816406 279.007812 221.828125 C 279.132812 221.90625 278.992188 222.457031 279.070312 222.78125 Z M 104.527344 180.859375 C 109.066406 188.199219 114.296875 195.265625 121.203125 200.492188 C 128.671875 205.539062 136.066406 210.675781 143.15625 216.242188 C 159.136719 228.359375 174.023438 242.003906 195.746094 236.34375 C 212.617188 231.285156 229.53125 226.265625 247.210938 225.152344 C 252.28125 224.675781 257.292969 225.09375 262.226562 226.390625 C 264.367188 226.785156 266.394531 227.898438 268.5625 227.921875 C 241.914062 207.886719 213.761719 208.160156 182.164062 206.820312 C 169.40625 205.976562 156.242188 206.148438 144.058594 201.804688 C 140.117188 200.351562 136.199219 198.816406 132.335938 197.167969 C 122.40625 192.910156 113.707031 186.414062 104.527344 180.859375 Z M 264.578125 223.769531 C 264.628906 223.703125 264.683594 223.632812 264.738281 223.5625 C 249.191406 204.570312 228.128906 187.144531 202.503906 186.308594 C 170.832031 185.167969 138.242188 192.152344 107.582031 181.300781 C 122.65625 191.886719 139.644531 201.542969 158.242188 204.011719 C 180.222656 206.5 202.464844 205.769531 224.410156 208.632812 C 238.738281 210.589844 252.261719 216.332031 264.578125 223.769531 Z M 264.578125 223.769531 " fill-opacity="1" fill-rule="nonzero"/></g></g></g><g clip-path="url(#941b4508f9)"><path fill="#006837" d="M 373.980469 241.78125 C 373.257812 243.554688 371.53125 244.71875 369.613281 244.71875 C 369.613281 244.71875 338.261719 244.597656 327.328125 244.554688 C 325.277344 244.546875 323.625 242.878906 323.625 240.828125 L 323.625 238.921875 C 323.625 236.914062 325.25 235.289062 327.253906 235.289062 L 357.839844 235.289062 C 357.914062 235.289062 357.953125 235.195312 357.898438 235.144531 L 305.140625 183.578125 C 304.214844 182.675781 303.695312 181.4375 303.695312 180.148438 L 303.695312 89.007812 C 303.695312 88.960938 303.65625 88.921875 303.609375 88.921875 L 264.550781 88.921875 C 264.503906 88.921875 264.464844 88.960938 264.464844 89.007812 L 264.464844 132.402344 C 264.464844 134.003906 263.773438 135.578125 262.460938 136.488281 C 260.554688 137.8125 258.050781 137.554688 256.457031 136 L 191.535156 72.550781 C 191.5 72.515625 191.449219 72.515625 191.414062 72.550781 L 25.054688 235.144531 C 25 235.195312 25.039062 235.289062 25.117188 235.289062 L 55.675781 235.289062 C 57.691406 235.289062 59.328125 236.925781 59.328125 238.941406 L 59.328125 241.371094 C 59.328125 243.082031 57.949219 244.46875 56.242188 244.476562 C 45.933594 244.535156 13.339844 244.71875 13.339844 244.71875 C 11.421875 244.71875 9.695312 243.554688 8.972656 241.78125 C 8.25 240.007812 8.671875 237.96875 10.042969 236.632812 L 188.183594 62.53125 C 190.015625 60.738281 192.9375 60.738281 194.769531 62.53125 L 254.890625 121.289062 C 254.945312 121.34375 255.039062 121.300781 255.039062 121.230469 L 255.039062 84.292969 C 255.039062 81.644531 257.1875 79.496094 259.835938 79.496094 L 308.320312 79.496094 C 310.972656 79.496094 313.121094 81.644531 313.121094 84.292969 L 313.121094 178.164062 C 313.121094 178.1875 313.132812 178.207031 313.148438 178.222656 L 372.910156 236.632812 C 374.28125 237.96875 374.703125 240.007812 373.980469 241.78125 " fill-opacity="1" fill-rule="nonzero"/></g><g clip-path="url(#afd9089a78)"><path fill="#006837" d="M 371.527344 243.710938 C 370.808594 245.484375 369.082031 246.644531 367.164062 246.644531 C 367.164062 246.644531 335.808594 246.523438 324.878906 246.484375 C 322.824219 246.472656 321.175781 244.808594 321.175781 242.753906 L 321.175781 240.851562 C 321.175781 238.84375 322.800781 237.21875 324.804688 237.21875 L 355.386719 237.21875 C 355.464844 237.21875 355.503906 237.125 355.449219 237.070312 L 302.6875 185.507812 C 301.761719 184.605469 301.242188 183.367188 301.242188 182.078125 L 301.242188 90.9375 C 301.242188 90.890625 301.203125 90.851562 301.15625 90.851562 L 262.097656 90.851562 C 262.050781 90.851562 262.011719 90.890625 262.011719 90.9375 L 262.011719 134.332031 C 262.011719 135.929688 261.324219 137.503906 260.007812 138.417969 C 258.101562 139.742188 255.597656 139.484375 254.003906 137.929688 L 189.085938 74.476562 C 189.050781 74.445312 189 74.445312 188.964844 74.476562 L 22.605469 237.070312 C 22.550781 237.125 22.589844 237.21875 22.664062 237.21875 L 53.226562 237.21875 C 55.238281 237.21875 56.875 238.855469 56.875 240.867188 L 56.875 243.296875 C 56.875 245.007812 55.496094 246.398438 53.789062 246.40625 C 43.480469 246.464844 10.886719 246.644531 10.886719 246.644531 C 8.972656 246.644531 7.246094 245.484375 6.519531 243.710938 C 5.800781 241.933594 6.222656 239.898438 7.59375 238.5625 L 185.730469 64.457031 C 187.5625 62.667969 190.488281 62.667969 192.320312 64.457031 L 252.441406 123.21875 C 252.496094 123.273438 252.589844 123.230469 252.589844 123.15625 L 252.589844 86.222656 C 252.589844 83.574219 254.734375 81.425781 257.386719 81.425781 L 305.871094 81.425781 C 308.519531 81.425781 310.671875 83.574219 310.671875 86.222656 L 310.671875 180.089844 C 310.671875 180.113281 310.679688 180.136719 310.695312 180.152344 L 370.460938 238.5625 C 371.828125 239.898438 372.253906 241.933594 371.527344 243.710938 " fill-opacity="1" fill-rule="nonzero"/></g><g clip-path="url(#bdf79a7c79)"><g clip-path="url(#8a4e38ad44)"><g clip-path="url(#51db943cff)"><path fill="#006837" d="M 282.199219 232.132812 C 279.433594 228.882812 277.972656 225.277344 276.960938 221.226562 C 275.96875 217.523438 274.296875 214.152344 272.082031 211.039062 C 271.542969 210.089844 269.898438 208.617188 271.179688 207.632812 C 271.691406 207.261719 272.488281 207.777344 272.835938 208.320312 C 274.511719 210.363281 276.230469 212.378906 277.851562 214.460938 C 281.660156 219.066406 282.542969 225.265625 286.1875 229.96875 C 289.4375 234.296875 293.101562 238.335938 297.527344 241.480469 C 298.367188 242.183594 299.582031 243.445312 298.511719 244.449219 C 298.085938 244.859375 297.5 244.933594 297.039062 244.589844 C 290.914062 239.996094 284.160156 236.429688 277.496094 232.734375 C 271.667969 229.5 265.363281 227.535156 258.847656 226.222656 C 255.109375 225.464844 251.328125 225.3125 247.539062 225.664062 C 236.394531 226.691406 225.34375 228.289062 214.570312 231.457031 C 201.660156 235.1875 188.363281 240.871094 174.859375 236.570312 C 168.625 234.90625 162.945312 232.125 157.789062 228.261719 C 147.71875 220.859375 137.972656 213.011719 127.71875 205.871094 C 125.617188 204.480469 123.515625 203.078125 121.421875 201.675781 C 114.449219 196.894531 109.167969 190.101562 104.492188 183.152344 C 97.429688 172.3125 102.554688 175.757812 110.65625 178.609375 C 140.3125 188.632812 171.824219 181.515625 202.371094 182.84375 C 227.960938 183.597656 249.363281 200.460938 265.054688 219.398438 C 269.992188 224.523438 275.203125 230.0625 282.199219 232.132812 Z M 279.070312 221.320312 C 280.148438 225.273438 281.582031 229.3125 285.027344 231.851562 C 282.402344 228.222656 280.710938 224.492188 279.378906 220.582031 C 279.261719 220.5 279.144531 220.417969 279.027344 220.332031 C 279.023438 220.34375 279.015625 220.355469 279.007812 220.363281 C 279.132812 220.441406 278.992188 220.996094 279.070312 221.320312 Z M 104.527344 179.394531 C 109.066406 186.734375 114.296875 193.800781 121.203125 199.027344 C 128.671875 204.078125 136.066406 209.214844 143.15625 214.78125 C 159.136719 226.898438 174.023438 240.542969 195.746094 234.882812 C 212.617188 229.824219 229.53125 224.804688 247.210938 223.691406 C 252.28125 223.214844 257.292969 223.632812 262.226562 224.925781 C 264.367188 225.324219 266.394531 226.433594 268.5625 226.460938 C 241.914062 206.425781 213.761719 206.699219 182.164062 205.355469 C 169.40625 204.515625 156.242188 204.6875 144.058594 200.34375 C 140.117188 198.890625 136.199219 197.355469 132.335938 195.707031 C 122.40625 191.449219 113.707031 184.949219 104.527344 179.394531 Z M 264.578125 222.308594 C 264.628906 222.238281 264.683594 222.171875 264.738281 222.101562 C 249.191406 203.109375 228.128906 185.679688 202.503906 184.847656 C 170.832031 183.707031 138.242188 190.691406 107.582031 179.839844 C 122.65625 190.421875 139.644531 200.082031 158.242188 202.546875 C 180.222656 205.039062 202.464844 204.308594 224.410156 207.171875 C 238.738281 209.128906 252.261719 214.867188 264.578125 222.308594 Z M 264.578125 222.308594 " fill-opacity="1" fill-rule="nonzero"/></g></g></g><g clip-path="url(#d490d60e48)"><g clip-path="url(#a3746ac947)"><g clip-path="url(#6ba10e5a74)"><path fill="#006837" d="M 283.753906 233.691406 C 280.988281 230.441406 279.527344 226.835938 278.515625 222.78125 C 277.523438 219.082031 275.851562 215.710938 273.640625 212.597656 C 273.101562 211.644531 271.457031 210.175781 272.738281 209.191406 C 273.246094 208.820312 274.042969 209.335938 274.394531 209.875 C 276.070312 211.921875 277.785156 213.933594 279.410156 216.019531 C 283.21875 220.625 284.097656 226.820312 287.742188 231.523438 C 290.992188 235.851562 294.65625 239.894531 299.085938 243.035156 C 299.921875 243.742188 301.136719 245 300.066406 246.003906 C 299.644531 246.417969 299.058594 246.492188 298.597656 246.144531 C 292.46875 241.554688 285.71875 237.988281 279.054688 234.289062 C 273.226562 231.058594 266.921875 229.09375 260.40625 227.777344 C 256.664062 227.023438 252.886719 226.871094 249.097656 227.21875 C 237.949219 228.246094 226.898438 229.847656 216.128906 233.011719 C 203.214844 236.742188 189.917969 242.429688 176.417969 238.128906 C 170.183594 236.460938 164.5 233.683594 159.34375 229.820312 C 149.277344 222.417969 139.53125 214.570312 129.273438 207.429688 C 127.171875 206.035156 125.074219 204.636719 122.976562 203.230469 C 116.003906 198.449219 110.726562 191.660156 106.050781 184.710938 C 98.984375 173.871094 104.113281 177.316406 112.214844 180.167969 C 141.871094 190.1875 173.382812 183.070312 203.929688 184.402344 C 229.519531 185.152344 250.921875 202.015625 266.609375 220.957031 C 271.546875 226.078125 276.761719 231.621094 283.753906 233.691406 Z M 280.628906 222.878906 C 281.707031 226.832031 283.140625 230.871094 286.585938 233.40625 C 283.960938 229.777344 282.269531 226.046875 280.933594 222.136719 C 280.816406 222.054688 280.703125 221.972656 280.585938 221.890625 C 280.578125 221.902344 280.574219 221.910156 280.566406 221.921875 C 280.691406 222 280.550781 222.554688 280.628906 222.878906 Z M 106.085938 180.953125 C 110.625 188.292969 115.851562 195.359375 122.761719 200.585938 C 130.230469 205.632812 137.625 210.773438 144.714844 216.339844 C 160.691406 228.453125 175.582031 242.097656 197.300781 236.4375 C 214.171875 231.378906 231.089844 226.363281 248.765625 225.246094 C 253.839844 224.773438 258.851562 225.1875 263.78125 226.484375 C 265.925781 226.878906 267.949219 227.992188 270.117188 228.015625 C 243.472656 207.984375 215.320312 208.253906 183.71875 206.914062 C 170.964844 206.074219 157.800781 206.242188 145.617188 201.898438 C 141.675781 200.445312 137.757812 198.910156 133.890625 197.261719 C 123.960938 193.007812 115.265625 186.507812 106.085938 180.953125 Z M 266.132812 223.867188 C 266.1875 223.796875 266.242188 223.726562 266.292969 223.65625 C 250.75 204.667969 229.6875 187.238281 204.0625 186.402344 C 172.390625 185.265625 139.796875 192.25 109.136719 181.394531 C 124.214844 191.980469 141.203125 201.636719 159.796875 204.105469 C 181.78125 206.597656 204.023438 205.863281 225.96875 208.726562 C 240.296875 210.683594 253.820312 216.425781 266.132812 223.867188 Z M 266.132812 223.867188 " fill-opacity="1" fill-rule="nonzero"/></g></g></g><g clip-path="url(#0ddf30aa69)"><g clip-path="url(#9d0f85a3eb)"><g clip-path="url(#9dea4abff7)"><path fill="#006837" d="M 285.121094 235.058594 C 282.355469 231.808594 280.894531 228.203125 279.882812 224.148438 C 278.890625 220.449219 277.21875 217.078125 275.003906 213.964844 C 274.46875 213.011719 272.824219 211.542969 274.105469 210.558594 C 274.613281 210.1875 275.410156 210.703125 275.761719 211.242188 C 277.4375 213.285156 279.152344 215.300781 280.777344 217.386719 C 284.585938 221.992188 285.464844 228.1875 289.109375 232.890625 C 292.359375 237.21875 296.023438 241.261719 300.449219 244.402344 C 301.289062 245.109375 302.503906 246.367188 301.433594 247.371094 C 301.011719 247.78125 300.425781 247.859375 299.960938 247.511719 C 293.835938 242.921875 287.085938 239.355469 280.421875 235.65625 C 274.59375 232.425781 268.289062 230.460938 261.773438 229.144531 C 258.03125 228.390625 254.253906 228.238281 250.464844 228.585938 C 239.316406 229.613281 228.265625 231.210938 217.496094 234.378906 C 204.582031 238.109375 191.285156 243.796875 177.785156 239.496094 C 171.550781 237.828125 165.867188 235.050781 160.710938 231.1875 C 150.640625 223.785156 140.898438 215.9375 130.640625 208.796875 C 128.539062 207.402344 126.441406 206.003906 124.34375 204.597656 C 117.371094 199.816406 112.09375 193.027344 107.417969 186.078125 C 100.351562 175.238281 105.480469 178.683594 113.578125 181.535156 C 143.238281 191.554688 174.75 184.4375 205.296875 185.769531 C 230.882812 186.519531 252.289062 203.382812 267.976562 222.324219 C 272.914062 227.445312 278.128906 232.988281 285.121094 235.058594 Z M 281.992188 224.246094 C 283.070312 228.199219 284.503906 232.238281 287.953125 234.773438 C 285.328125 231.144531 283.636719 227.414062 282.300781 223.503906 C 282.183594 223.421875 282.070312 223.339844 281.953125 223.257812 C 281.945312 223.269531 281.9375 223.277344 281.933594 223.289062 C 282.058594 223.367188 281.917969 223.921875 281.992188 224.246094 Z M 107.453125 182.320312 C 111.988281 189.660156 117.21875 196.726562 124.128906 201.953125 C 131.597656 207 138.992188 212.136719 146.082031 217.707031 C 162.058594 229.820312 176.949219 243.464844 198.667969 237.804688 C 215.539062 232.746094 232.457031 227.730469 250.132812 226.613281 C 255.207031 226.140625 260.21875 226.554688 265.148438 227.851562 C 267.292969 228.246094 269.316406 229.359375 271.484375 229.382812 C 244.835938 209.351562 216.6875 209.621094 185.085938 208.28125 C 172.332031 207.4375 159.164062 207.609375 146.984375 203.265625 C 143.042969 201.8125 139.125 200.277344 135.257812 198.628906 C 125.328125 194.375 116.632812 187.875 107.453125 182.320312 Z M 267.5 225.234375 C 267.554688 225.164062 267.605469 225.09375 267.660156 225.023438 C 252.117188 206.035156 231.050781 188.605469 205.429688 187.769531 C 173.757812 186.628906 141.164062 193.617188 110.503906 182.761719 C 125.582031 193.347656 142.570312 203.003906 161.164062 205.472656 C 183.148438 207.964844 205.390625 207.230469 227.335938 210.09375 C 241.664062 212.050781 255.1875 217.792969 267.5 225.234375 Z M 267.5 225.234375 " fill-opacity="1" fill-rule="nonzero"/></g></g></g><g clip-path="url(#c29751abc1)"><g clip-path="url(#5af2f7391f)"><g clip-path="url(#045b500ed0)"><path fill="#006837" d="M 282.949219 233.59375 C 280.183594 230.34375 278.722656 226.742188 277.710938 222.6875 C 276.71875 218.984375 275.046875 215.617188 272.832031 212.5 C 272.292969 211.550781 270.648438 210.082031 271.929688 209.097656 C 272.441406 208.722656 273.238281 209.238281 273.585938 209.78125 C 275.261719 211.824219 276.980469 213.839844 278.601562 215.925781 C 282.410156 220.527344 283.292969 226.726562 286.9375 231.429688 C 290.1875 235.757812 293.851562 239.796875 298.277344 242.941406 C 299.117188 243.644531 300.332031 244.90625 299.261719 245.910156 C 298.835938 246.320312 298.25 246.398438 297.789062 246.050781 C 291.664062 241.460938 284.910156 237.894531 278.246094 234.195312 C 272.417969 230.960938 266.113281 228.996094 259.597656 227.683594 C 255.859375 226.929688 252.078125 226.773438 248.289062 227.125 C 237.144531 228.152344 226.09375 229.75 215.320312 232.917969 C 202.410156 236.648438 189.113281 242.335938 175.609375 238.03125 C 169.375 236.367188 163.695312 233.585938 158.539062 229.722656 C 148.46875 222.320312 138.722656 214.472656 128.46875 207.335938 C 126.367188 205.941406 124.265625 204.539062 122.171875 203.136719 C 115.199219 198.355469 109.917969 191.5625 105.242188 184.617188 C 98.179688 173.773438 103.304688 177.21875 111.40625 180.070312 C 141.0625 190.09375 172.574219 182.976562 203.121094 184.308594 C 228.710938 185.058594 250.113281 201.921875 265.804688 220.863281 C 270.742188 225.984375 275.953125 231.523438 282.949219 233.59375 Z M 279.820312 222.78125 C 280.898438 226.734375 282.332031 230.773438 285.777344 233.3125 C 283.152344 229.683594 281.460938 225.953125 280.128906 222.042969 C 280.011719 221.960938 279.894531 221.878906 279.777344 221.796875 C 279.773438 221.804688 279.765625 221.816406 279.757812 221.828125 C 279.882812 221.90625 279.742188 222.457031 279.820312 222.78125 Z M 105.277344 180.859375 C 109.816406 188.199219 115.046875 195.265625 121.953125 200.492188 C 129.421875 205.539062 136.816406 210.675781 143.90625 216.242188 C 159.886719 228.359375 174.773438 242.003906 196.496094 236.34375 C 213.367188 231.285156 230.28125 226.265625 247.960938 225.152344 C 253.03125 224.675781 258.042969 225.09375 262.976562 226.390625 C 265.117188 226.785156 267.144531 227.898438 269.3125 227.921875 C 242.664062 207.886719 214.511719 208.160156 182.914062 206.820312 C 170.15625 205.976562 156.992188 206.148438 144.808594 201.804688 C 140.867188 200.351562 136.949219 198.816406 133.085938 197.167969 C 123.15625 192.910156 114.457031 186.414062 105.277344 180.859375 Z M 265.328125 223.769531 C 265.378906 223.703125 265.433594 223.632812 265.488281 223.5625 C 249.941406 204.570312 228.878906 187.144531 203.253906 186.308594 C 171.582031 185.167969 138.992188 192.152344 108.332031 181.300781 C 123.40625 191.886719 140.394531 201.542969 158.992188 204.011719 C 180.972656 206.5 203.214844 205.769531 225.160156 208.632812 C 239.488281 210.589844 253.011719 216.332031 265.328125 223.769531 Z M 265.328125 223.769531 " fill-opacity="1" fill-rule="nonzero"/></g></g></g><g clip-path="url(#7b7953866b)"><g clip-path="url(#288937cbd3)"><g clip-path="url(#e70948c291)"><path fill="#006837" d="M 284.503906 235.152344 C 281.738281 231.902344 280.277344 228.296875 279.265625 224.246094 C 278.273438 220.542969 276.601562 217.171875 274.390625 214.058594 C 273.851562 213.109375 272.207031 211.636719 273.488281 210.652344 C 273.996094 210.28125 274.792969 210.796875 275.144531 211.335938 C 276.820312 213.382812 278.535156 215.394531 280.160156 217.480469 C 283.96875 222.085938 284.847656 228.28125 288.492188 232.988281 C 291.742188 237.3125 295.40625 241.355469 299.835938 244.496094 C 300.671875 245.203125 301.886719 246.464844 300.816406 247.46875 C 300.394531 247.878906 299.808594 247.953125 299.347656 247.609375 C 293.21875 243.015625 286.46875 239.449219 279.804688 235.753906 C 273.976562 232.519531 267.671875 230.554688 261.15625 229.238281 C 257.414062 228.484375 253.636719 228.332031 249.847656 228.679688 C 238.699219 229.710938 227.648438 231.308594 216.878906 234.476562 C 203.964844 238.203125 190.667969 243.890625 177.167969 239.589844 C 170.933594 237.925781 165.25 235.144531 160.09375 231.28125 C 150.027344 223.878906 140.28125 216.03125 130.023438 208.890625 C 127.921875 207.496094 125.824219 206.097656 123.726562 204.695312 C 116.753906 199.914062 111.476562 193.121094 106.800781 186.171875 C 99.734375 175.332031 104.863281 178.777344 112.964844 181.628906 C 142.621094 191.652344 174.132812 184.535156 204.679688 185.863281 C 230.269531 186.617188 251.671875 203.480469 267.359375 222.417969 C 272.296875 227.542969 277.511719 233.082031 284.503906 235.152344 Z M 281.378906 224.339844 C 282.457031 228.292969 283.890625 232.332031 287.335938 234.871094 C 284.710938 231.238281 283.019531 227.511719 281.683594 223.601562 C 281.566406 223.519531 281.453125 223.433594 281.335938 223.351562 C 281.328125 223.363281 281.324219 223.375 281.316406 223.382812 C 281.441406 223.460938 281.300781 224.015625 281.378906 224.339844 Z M 106.835938 182.414062 C 111.375 189.753906 116.601562 196.820312 123.511719 202.046875 C 130.980469 207.097656 138.375 212.234375 145.464844 217.800781 C 161.441406 229.914062 176.332031 243.5625 198.050781 237.902344 C 214.921875 232.839844 231.839844 227.824219 249.515625 226.707031 C 254.589844 226.234375 259.601562 226.652344 264.53125 227.945312 C 266.675781 228.339844 268.699219 229.453125 270.867188 229.476562 C 244.222656 209.445312 216.070312 209.714844 184.46875 208.375 C 171.714844 207.535156 158.550781 207.703125 146.367188 203.359375 C 142.425781 201.910156 138.507812 200.375 134.640625 198.722656 C 124.710938 194.46875 116.015625 187.96875 106.835938 182.414062 Z M 266.882812 225.328125 C 266.9375 225.257812 266.992188 225.1875 267.042969 225.121094 C 251.5 206.128906 230.4375 188.699219 204.8125 187.867188 C 173.140625 186.726562 140.546875 193.710938 109.886719 182.859375 C 124.964844 193.441406 141.953125 203.097656 160.546875 205.566406 C 182.53125 208.058594 204.773438 207.324219 226.71875 210.191406 C 241.046875 212.148438 254.570312 217.886719 266.882812 225.328125 Z M 266.882812 225.328125 " fill-opacity="1" fill-rule="nonzero"/></g></g></g><g clip-path="url(#23fd803b0a)"><g clip-path="url(#76ccc4e4f3)"><g clip-path="url(#df771f1db6)"><path fill="#006837" d="M 285.871094 236.519531 C 283.105469 233.269531 281.644531 229.664062 280.632812 225.609375 C 279.640625 221.910156 277.96875 218.539062 275.753906 215.425781 C 275.21875 214.476562 273.574219 213.003906 274.855469 212.019531 C 275.363281 211.648438 276.160156 212.164062 276.511719 212.703125 C 278.1875 214.75 279.902344 216.761719 281.527344 218.847656 C 285.335938 223.453125 286.214844 229.648438 289.859375 234.355469 C 293.109375 238.679688 296.773438 242.722656 301.199219 245.863281 C 302.039062 246.570312 303.253906 247.832031 302.183594 248.835938 C 301.761719 249.246094 301.175781 249.320312 300.710938 248.972656 C 294.585938 244.382812 287.835938 240.816406 281.171875 237.121094 C 275.34375 233.886719 269.039062 231.921875 262.523438 230.605469 C 258.78125 229.851562 255.003906 229.699219 251.214844 230.046875 C 240.066406 231.074219 229.015625 232.675781 218.246094 235.839844 C 205.332031 239.570312 192.035156 245.257812 178.535156 240.957031 C 172.300781 239.292969 166.617188 236.511719 161.460938 232.648438 C 151.390625 225.246094 141.648438 217.398438 131.390625 210.257812 C 129.289062 208.863281 127.191406 207.464844 125.09375 206.0625 C 118.121094 201.28125 112.84375 194.488281 108.167969 187.539062 C 101.101562 176.699219 106.230469 180.144531 114.328125 182.996094 C 143.988281 193.019531 175.5 185.902344 206.046875 187.230469 C 231.632812 187.984375 253.039062 204.847656 268.726562 223.785156 C 273.664062 228.910156 278.878906 234.449219 285.871094 236.519531 Z M 282.742188 225.707031 C 283.820312 229.660156 285.253906 233.699219 288.703125 236.238281 C 286.078125 232.605469 284.386719 228.878906 283.050781 224.96875 C 282.933594 224.882812 282.820312 224.800781 282.703125 224.71875 C 282.695312 224.730469 282.6875 224.742188 282.683594 224.75 C 282.808594 224.828125 282.667969 225.382812 282.742188 225.707031 Z M 108.203125 183.78125 C 112.738281 191.121094 117.96875 198.1875 124.878906 203.414062 C 132.347656 208.460938 139.742188 213.601562 146.832031 219.167969 C 162.808594 231.28125 177.699219 244.929688 199.417969 239.269531 C 216.289062 234.207031 233.207031 229.191406 250.882812 228.074219 C 255.957031 227.601562 260.96875 228.015625 265.898438 229.3125 C 268.042969 229.707031 270.066406 230.820312 272.234375 230.84375 C 245.585938 210.8125 217.4375 211.082031 185.835938 209.742188 C 173.082031 208.902344 159.914062 209.070312 147.734375 204.726562 C 143.792969 203.273438 139.875 201.742188 136.007812 200.089844 C 126.078125 195.835938 117.382812 189.335938 108.203125 183.78125 Z M 268.25 226.695312 C 268.304688 226.625 268.355469 226.554688 268.410156 226.484375 C 252.867188 207.496094 231.800781 190.066406 206.179688 189.234375 C 174.507812 188.09375 141.914062 195.078125 111.253906 184.226562 C 126.332031 194.808594 143.320312 204.464844 161.914062 206.933594 C 183.898438 209.425781 206.140625 208.691406 228.085938 211.558594 C 242.414062 213.511719 255.9375 219.253906 268.25 226.695312 Z M 268.25 226.695312 " fill-opacity="1" fill-rule="nonzero"/></g></g></g></svg>